<svg width="300" height="300" viewBox="0 0 300 300" fill="none" xmlns="http://www.w3.org/2000/svg">
<rect width="300" height="300" rx="15" fill="url(#paint0_linear_187_3)"/>
<path d="M43.0605 111.45C40.6605 111.45 38.4255 111.06 36.3555 110.28C34.3155 109.47 32.5305 108.345 31.0005 106.905C29.5005 105.435 28.3305 103.71 27.4905 101.73C26.6505 99.75 26.2305 97.59 26.2305 95.25C26.2305 92.91 26.6505 90.75 27.4905 88.77C28.3305 86.79 29.5155 85.08 31.0455 83.64C32.5755 82.17 34.3605 81.045 36.4005 80.265C38.4405 79.455 40.6755 79.05 43.1055 79.05C45.6855 79.05 48.0405 79.5 50.1705 80.4C52.3005 81.27 54.1005 82.575 55.5705 84.315L51.7905 87.87C50.6505 86.64 49.3755 85.725 47.9655 85.125C46.5555 84.495 45.0255 84.18 43.3755 84.18C41.7255 84.18 40.2105 84.45 38.8305 84.99C37.4805 85.53 36.2955 86.295 35.2755 87.285C34.2855 88.275 33.5055 89.445 32.9355 90.795C32.3955 92.145 32.1255 93.63 32.1255 95.25C32.1255 96.87 32.3955 98.355 32.9355 99.705C33.5055 101.055 34.2855 102.225 35.2755 103.215C36.2955 104.205 37.4805 104.97 38.8305 105.51C40.2105 106.05 41.7255 106.32 43.3755 106.32C45.0255 106.32 46.5555 106.02 47.9655 105.42C49.3755 104.79 50.6505 103.845 51.7905 102.585L55.5705 106.185C54.1005 107.895 52.3005 109.2 50.1705 110.1C48.0405 111 45.6705 111.45 43.0605 111.45ZM75.2211 111V106.14L74.9061 105.105V96.6C74.9061 94.95 74.4111 93.675 73.4211 92.775C72.4311 91.845 70.9311 91.38 68.9211 91.38C67.5711 91.38 66.2361 91.59 64.9161 92.01C63.6261 92.43 62.5311 93.015 61.6311 93.765L59.4261 89.67C60.7161 88.68 62.2461 87.945 64.0161 87.465C65.8161 86.955 67.6761 86.7 69.5961 86.7C73.0761 86.7 75.7611 87.54 77.6511 89.22C79.5711 90.87 80.5311 93.435 80.5311 96.915V111H75.2211ZM67.6611 111.315C65.8611 111.315 64.2861 111.015 62.9361 110.415C61.5861 109.785 60.5361 108.93 59.7861 107.85C59.0661 106.74 58.7061 105.495 58.7061 104.115C58.7061 102.765 59.0211 101.55 59.6511 100.47C60.3111 99.39 61.3761 98.535 62.8461 97.905C64.3161 97.275 66.2661 96.96 68.6961 96.96H75.6711V100.695H69.1011C67.1811 100.695 65.8911 101.01 65.2311 101.64C64.5711 102.24 64.2411 102.99 64.2411 103.89C64.2411 104.91 64.6461 105.72 65.4561 106.32C66.2661 106.92 67.3911 107.22 68.8311 107.22C70.2111 107.22 71.4411 106.905 72.5211 106.275C73.6311 105.645 74.4261 104.715 74.9061 103.485L75.8511 106.86C75.3111 108.27 74.3361 109.365 72.9261 110.145C71.5461 110.925 69.7911 111.315 67.6611 111.315ZM101.385 86.7C103.305 86.7 105.015 87.075 106.515 87.825C108.045 88.575 109.245 89.73 110.115 91.29C110.985 92.82 111.42 94.8 111.42 97.23V111H105.795V97.95C105.795 95.82 105.285 94.23 104.265 93.18C103.275 92.13 101.88 91.605 100.08 91.605C98.7601 91.605 97.5901 91.875 96.5701 92.415C95.5501 92.955 94.7551 93.765 94.1851 94.845C93.6451 95.895 93.3751 97.23 93.3751 98.85V111H87.7501V86.97H93.1051V93.45L92.1601 91.47C93.0001 89.94 94.2151 88.77 95.8051 87.96C97.4251 87.12 99.2851 86.7 101.385 86.7ZM127.601 111.315C124.961 111.315 122.921 110.64 121.481 109.29C120.041 107.91 119.321 105.885 119.321 103.215V81.66H124.946V103.08C124.946 104.22 125.231 105.105 125.801 105.735C126.401 106.365 127.226 106.68 128.276 106.68C129.536 106.68 130.586 106.35 131.426 105.69L133.001 109.695C132.341 110.235 131.531 110.64 130.571 110.91C129.611 111.18 128.621 111.315 127.601 111.315ZM115.361 91.65V87.15H131.381V91.65H115.361ZM137.628 111V86.97H143.253V111H137.628ZM140.463 83.01C139.413 83.01 138.543 82.68 137.853 82.02C137.193 81.36 136.863 80.565 136.863 79.635C136.863 78.675 137.193 77.88 137.853 77.25C138.543 76.59 139.413 76.26 140.463 76.26C141.513 76.26 142.368 76.575 143.028 77.205C143.718 77.805 144.063 78.57 144.063 79.5C144.063 80.49 143.733 81.33 143.073 82.02C142.413 82.68 141.543 83.01 140.463 83.01ZM164.271 86.7C166.191 86.7 167.901 87.075 169.401 87.825C170.931 88.575 172.131 89.73 173.001 91.29C173.871 92.82 174.306 94.8 174.306 97.23V111H168.681V97.95C168.681 95.82 168.171 94.23 167.151 93.18C166.161 92.13 164.766 91.605 162.966 91.605C161.646 91.605 160.476 91.875 159.456 92.415C158.436 92.955 157.641 93.765 157.071 94.845C156.531 95.895 156.261 97.23 156.261 98.85V111H150.636V86.97H155.991V93.45L155.046 91.47C155.886 89.94 157.101 88.77 158.691 87.96C160.311 87.12 162.171 86.7 164.271 86.7ZM196.246 111V106.14L195.931 105.105V96.6C195.931 94.95 195.436 93.675 194.446 92.775C193.456 91.845 191.956 91.38 189.946 91.38C188.596 91.38 187.261 91.59 185.941 92.01C184.651 92.43 183.556 93.015 182.656 93.765L180.451 89.67C181.741 88.68 183.271 87.945 185.041 87.465C186.841 86.955 188.701 86.7 190.621 86.7C194.101 86.7 196.786 87.54 198.676 89.22C200.596 90.87 201.556 93.435 201.556 96.915V111H196.246ZM188.686 111.315C186.886 111.315 185.311 111.015 183.961 110.415C182.611 109.785 181.561 108.93 180.811 107.85C180.091 106.74 179.731 105.495 179.731 104.115C179.731 102.765 180.046 101.55 180.676 100.47C181.336 99.39 182.401 98.535 183.871 97.905C185.341 97.275 187.291 96.96 189.721 96.96H196.696V100.695H190.126C188.206 100.695 186.916 101.01 186.256 101.64C185.596 102.24 185.266 102.99 185.266 103.89C185.266 104.91 185.671 105.72 186.481 106.32C187.291 106.92 188.416 107.22 189.856 107.22C191.236 107.22 192.466 106.905 193.546 106.275C194.656 105.645 195.451 104.715 195.931 103.485L196.876 106.86C196.336 108.27 195.361 109.365 193.951 110.145C192.571 110.925 190.816 111.315 188.686 111.315ZM231.382 111.315C229.072 111.315 226.987 110.805 225.127 109.785C223.297 108.735 221.857 107.295 220.807 105.465C219.757 103.635 219.232 101.475 219.232 98.985C219.232 96.495 219.757 94.335 220.807 92.505C221.857 90.675 223.297 89.25 225.127 88.23C226.987 87.21 229.072 86.7 231.382 86.7C233.392 86.7 235.192 87.15 236.782 88.05C238.372 88.92 239.632 90.255 240.562 92.055C241.492 93.855 241.957 96.165 241.957 98.985C241.957 101.775 241.507 104.085 240.607 105.915C239.707 107.715 238.462 109.065 236.872 109.965C235.282 110.865 233.452 111.315 231.382 111.315ZM232.057 106.5C233.407 106.5 234.607 106.2 235.657 105.6C236.737 105 237.592 104.13 238.222 102.99C238.882 101.85 239.212 100.515 239.212 98.985C239.212 97.425 238.882 96.09 238.222 94.98C237.592 93.84 236.737 92.97 235.657 92.37C234.607 91.77 233.407 91.47 232.057 91.47C230.707 91.47 229.492 91.77 228.412 92.37C227.362 92.97 226.507 93.84 225.847 94.98C225.217 96.09 224.902 97.425 224.902 98.985C224.902 100.515 225.217 101.85 225.847 102.99C226.507 104.13 227.362 105 228.412 105.6C229.492 106.2 230.707 106.5 232.057 106.5ZM239.347 111V105.33L239.572 98.94L239.122 92.55V77.61H244.702V111H239.347ZM266.911 111V106.14L266.596 105.105V96.6C266.596 94.95 266.101 93.675 265.111 92.775C264.121 91.845 262.621 91.38 260.611 91.38C259.261 91.38 257.926 91.59 256.606 92.01C255.316 92.43 254.221 93.015 253.321 93.765L251.116 89.67C252.406 88.68 253.936 87.945 255.706 87.465C257.506 86.955 259.366 86.7 261.286 86.7C264.766 86.7 267.451 87.54 269.341 89.22C271.261 90.87 272.221 93.435 272.221 96.915V111H266.911ZM259.351 111.315C257.551 111.315 255.976 111.015 254.626 110.415C253.276 109.785 252.226 108.93 251.476 107.85C250.756 106.74 250.396 105.495 250.396 104.115C250.396 102.765 250.711 101.55 251.341 100.47C252.001 99.39 253.066 98.535 254.536 97.905C256.006 97.275 257.956 96.96 260.386 96.96H267.361V100.695H260.791C258.871 100.695 257.581 101.01 256.921 101.64C256.261 102.24 255.931 102.99 255.931 103.89C255.931 104.91 256.336 105.72 257.146 106.32C257.956 106.92 259.081 107.22 260.521 107.22C261.901 107.22 263.131 106.905 264.211 106.275C265.321 105.645 266.116 104.715 266.596 103.485L267.541 106.86C267.001 108.27 266.026 109.365 264.616 110.145C263.236 110.925 261.481 111.315 259.351 111.315ZM70.2066 166V134.5H75.0216L94.7766 158.755H92.3916V134.5H98.1966V166H93.3816L73.6266 141.745H76.0116V166H70.2066ZM120.902 166V161.14L120.587 160.105V151.6C120.587 149.95 120.092 148.675 119.102 147.775C118.112 146.845 116.612 146.38 114.602 146.38C113.252 146.38 111.917 146.59 110.597 147.01C109.307 147.43 108.212 148.015 107.312 148.765L105.107 144.67C106.397 143.68 107.927 142.945 109.697 142.465C111.497 141.955 113.357 141.7 115.277 141.7C118.757 141.7 121.442 142.54 123.332 144.22C125.252 145.87 126.212 148.435 126.212 151.915V166H120.902ZM113.342 166.315C111.542 166.315 109.967 166.015 108.617 165.415C107.267 164.785 106.217 163.93 105.467 162.85C104.747 161.74 104.387 160.495 104.387 159.115C104.387 157.765 104.702 156.55 105.332 155.47C105.992 154.39 107.057 153.535 108.527 152.905C109.997 152.275 111.947 151.96 114.377 151.96H121.352V155.695H114.782C112.862 155.695 111.572 156.01 110.912 156.64C110.252 157.24 109.922 157.99 109.922 158.89C109.922 159.91 110.327 160.72 111.137 161.32C111.947 161.92 113.072 162.22 114.512 162.22C115.892 162.22 117.122 161.905 118.202 161.275C119.312 160.645 120.107 159.715 120.587 158.485L121.532 161.86C120.992 163.27 120.017 164.365 118.607 165.145C117.227 165.925 115.472 166.315 113.342 166.315ZM140.856 166.315C138.846 166.315 136.911 166.06 135.051 165.55C133.221 165.01 131.766 164.365 130.686 163.615L132.846 159.34C133.926 160.03 135.216 160.6 136.716 161.05C138.216 161.5 139.716 161.725 141.216 161.725C142.986 161.725 144.261 161.485 145.041 161.005C145.851 160.525 146.256 159.88 146.256 159.07C146.256 158.41 145.986 157.915 145.446 157.585C144.906 157.225 144.201 156.955 143.331 156.775C142.461 156.595 141.486 156.43 140.406 156.28C139.356 156.13 138.291 155.935 137.211 155.695C136.161 155.425 135.201 155.05 134.331 154.57C133.461 154.06 132.756 153.385 132.216 152.545C131.676 151.705 131.406 150.595 131.406 149.215C131.406 147.685 131.841 146.365 132.711 145.255C133.581 144.115 134.796 143.245 136.356 142.645C137.946 142.015 139.821 141.7 141.981 141.7C143.601 141.7 145.236 141.88 146.886 142.24C148.536 142.6 149.901 143.11 150.981 143.77L148.821 148.045C147.681 147.355 146.526 146.89 145.356 146.65C144.216 146.38 143.076 146.245 141.936 146.245C140.226 146.245 138.951 146.5 138.111 147.01C137.301 147.52 136.896 148.165 136.896 148.945C136.896 149.665 137.166 150.205 137.706 150.565C138.246 150.925 138.951 151.21 139.821 151.42C140.691 151.63 141.651 151.81 142.701 151.96C143.781 152.08 144.846 152.275 145.896 152.545C146.946 152.815 147.906 153.19 148.776 153.67C149.676 154.12 150.396 154.765 150.936 155.605C151.476 156.445 151.746 157.54 151.746 158.89C151.746 160.39 151.296 161.695 150.396 162.805C149.526 163.915 148.281 164.785 146.661 165.415C145.041 166.015 143.106 166.315 140.856 166.315ZM164.015 166.315C162.005 166.315 160.07 166.06 158.21 165.55C156.38 165.01 154.925 164.365 153.845 163.615L156.005 159.34C157.085 160.03 158.375 160.6 159.875 161.05C161.375 161.5 162.875 161.725 164.375 161.725C166.145 161.725 167.42 161.485 168.2 161.005C169.01 160.525 169.415 159.88 169.415 159.07C169.415 158.41 169.145 157.915 168.605 157.585C168.065 157.225 167.36 156.955 166.49 156.775C165.62 156.595 164.645 156.43 163.565 156.28C162.515 156.13 161.45 155.935 160.37 155.695C159.32 155.425 158.36 155.05 157.49 154.57C156.62 154.06 155.915 153.385 155.375 152.545C154.835 151.705 154.565 150.595 154.565 149.215C154.565 147.685 155 146.365 155.87 145.255C156.74 144.115 157.955 143.245 159.515 142.645C161.105 142.015 162.98 141.7 165.14 141.7C166.76 141.7 168.395 141.88 170.045 142.24C171.695 142.6 173.06 143.11 174.14 143.77L171.98 148.045C170.84 147.355 169.685 146.89 168.515 146.65C167.375 146.38 166.235 146.245 165.095 146.245C163.385 146.245 162.11 146.5 161.27 147.01C160.46 147.52 160.055 148.165 160.055 148.945C160.055 149.665 160.325 150.205 160.865 150.565C161.405 150.925 162.11 151.21 162.98 151.42C163.85 151.63 164.81 151.81 165.86 151.96C166.94 152.08 168.005 152.275 169.055 152.545C170.105 152.815 171.065 153.19 171.935 153.67C172.835 154.12 173.555 154.765 174.095 155.605C174.635 156.445 174.905 157.54 174.905 158.89C174.905 160.39 174.455 161.695 173.555 162.805C172.685 163.915 171.44 164.785 169.82 165.415C168.2 166.015 166.265 166.315 164.015 166.315ZM194.555 166V161.14L194.24 160.105V151.6C194.24 149.95 193.745 148.675 192.755 147.775C191.765 146.845 190.265 146.38 188.255 146.38C186.905 146.38 185.57 146.59 184.25 147.01C182.96 147.43 181.865 148.015 180.965 148.765L178.76 144.67C180.05 143.68 181.58 142.945 183.35 142.465C185.15 141.955 187.01 141.7 188.93 141.7C192.41 141.7 195.095 142.54 196.985 144.22C198.905 145.87 199.865 148.435 199.865 151.915V166H194.555ZM186.995 166.315C185.195 166.315 183.62 166.015 182.27 165.415C180.92 164.785 179.87 163.93 179.12 162.85C178.4 161.74 178.04 160.495 178.04 159.115C178.04 157.765 178.355 156.55 178.985 155.47C179.645 154.39 180.71 153.535 182.18 152.905C183.65 152.275 185.6 151.96 188.03 151.96H195.005V155.695H188.435C186.515 155.695 185.225 156.01 184.565 156.64C183.905 157.24 183.575 157.99 183.575 158.89C183.575 159.91 183.98 160.72 184.79 161.32C185.6 161.92 186.725 162.22 188.165 162.22C189.545 162.22 190.775 161.905 191.855 161.275C192.965 160.645 193.76 159.715 194.24 158.485L195.185 161.86C194.645 163.27 193.67 164.365 192.26 165.145C190.88 165.925 189.125 166.315 186.995 166.315ZM217.254 166.315C215.214 166.315 213.414 165.94 211.854 165.19C210.294 164.41 209.079 163.24 208.209 161.68C207.339 160.09 206.904 158.095 206.904 155.695V141.97H212.529V154.93C212.529 157.09 213.009 158.71 213.969 159.79C214.959 160.84 216.354 161.365 218.154 161.365C219.474 161.365 220.614 161.095 221.574 160.555C222.564 160.015 223.329 159.205 223.869 158.125C224.439 157.045 224.724 155.71 224.724 154.12V141.97H230.349V166H224.994V159.52L225.939 161.5C225.129 163.06 223.944 164.26 222.384 165.1C220.824 165.91 219.114 166.315 217.254 166.315ZM67.8456 221.45C65.4456 221.45 63.2106 221.06 61.1406 220.28C59.1006 219.47 57.3156 218.345 55.7856 216.905C54.2856 215.435 53.1156 213.71 52.2756 211.73C51.4356 209.75 51.0156 207.59 51.0156 205.25C51.0156 202.91 51.4356 200.75 52.2756 198.77C53.1156 196.79 54.3006 195.08 55.8306 193.64C57.3606 192.17 59.1456 191.045 61.1856 190.265C63.2256 189.455 65.4606 189.05 67.8906 189.05C70.4706 189.05 72.8256 189.5 74.9556 190.4C77.0856 191.27 78.8856 192.575 80.3556 194.315L76.5756 197.87C75.4356 196.64 74.1606 195.725 72.7506 195.125C71.3406 194.495 69.8106 194.18 68.1606 194.18C66.5106 194.18 64.9956 194.45 63.6156 194.99C62.2656 195.53 61.0806 196.295 60.0606 197.285C59.0706 198.275 58.2906 199.445 57.7206 200.795C57.1806 202.145 56.9106 203.63 56.9106 205.25C56.9106 206.87 57.1806 208.355 57.7206 209.705C58.2906 211.055 59.0706 212.225 60.0606 213.215C61.0806 214.205 62.2656 214.97 63.6156 215.51C64.9956 216.05 66.5106 216.32 68.1606 216.32C69.8106 216.32 71.3406 216.02 72.7506 215.42C74.1606 214.79 75.4356 213.845 76.5756 212.585L80.3556 216.185C78.8856 217.895 77.0856 219.2 74.9556 220.1C72.8256 221 70.4556 221.45 67.8456 221.45ZM100.006 221V216.14L99.6912 215.105V206.6C99.6912 204.95 99.1962 203.675 98.2062 202.775C97.2162 201.845 95.7162 201.38 93.7062 201.38C92.3562 201.38 91.0212 201.59 89.7012 202.01C88.4112 202.43 87.3162 203.015 86.4162 203.765L84.2112 199.67C85.5012 198.68 87.0312 197.945 88.8012 197.465C90.6012 196.955 92.4612 196.7 94.3812 196.7C97.8612 196.7 100.546 197.54 102.436 199.22C104.356 200.87 105.316 203.435 105.316 206.915V221H100.006ZM92.4462 221.315C90.6462 221.315 89.0712 221.015 87.7212 220.415C86.3712 219.785 85.3212 218.93 84.5712 217.85C83.8512 216.74 83.4912 215.495 83.4912 214.115C83.4912 212.765 83.8062 211.55 84.4362 210.47C85.0962 209.39 86.1612 208.535 87.6312 207.905C89.1012 207.275 91.0512 206.96 93.4812 206.96H100.456V210.695H93.8862C91.9662 210.695 90.6762 211.01 90.0162 211.64C89.3562 212.24 89.0262 212.99 89.0262 213.89C89.0262 214.91 89.4312 215.72 90.2412 216.32C91.0512 216.92 92.1762 217.22 93.6162 217.22C94.9962 217.22 96.2262 216.905 97.3062 216.275C98.4162 215.645 99.2112 214.715 99.6912 213.485L100.636 216.86C100.096 218.27 99.1212 219.365 97.7112 220.145C96.3312 220.925 94.5762 221.315 92.4462 221.315ZM109.25 221L119.825 207.23L119.735 210.245L109.655 196.97H115.91L122.975 206.42H120.59L127.7 196.97H133.775L123.605 210.245L123.65 207.23L134.18 221H127.835L120.41 210.965L122.75 211.28L115.46 221H109.25ZM152.697 221V216.14L152.382 215.105V206.6C152.382 204.95 151.887 203.675 150.897 202.775C149.907 201.845 148.407 201.38 146.397 201.38C145.047 201.38 143.712 201.59 142.392 202.01C141.102 202.43 140.007 203.015 139.107 203.765L136.902 199.67C138.192 198.68 139.722 197.945 141.492 197.465C143.292 196.955 145.152 196.7 147.072 196.7C150.552 196.7 153.237 197.54 155.127 199.22C157.047 200.87 158.007 203.435 158.007 206.915V221H152.697ZM145.137 221.315C143.337 221.315 141.762 221.015 140.412 220.415C139.062 219.785 138.012 218.93 137.262 217.85C136.542 216.74 136.182 215.495 136.182 214.115C136.182 212.765 136.497 211.55 137.127 210.47C137.787 209.39 138.852 208.535 140.322 207.905C141.792 207.275 143.742 206.96 146.172 206.96H153.147V210.695H146.577C144.657 210.695 143.367 211.01 142.707 211.64C142.047 212.24 141.717 212.99 141.717 213.89C141.717 214.91 142.122 215.72 142.932 216.32C143.742 216.92 144.867 217.22 146.307 217.22C147.687 217.22 148.917 216.905 149.997 216.275C151.107 215.645 151.902 214.715 152.382 213.485L153.327 216.86C152.787 218.27 151.812 219.365 150.402 220.145C149.022 220.925 147.267 221.315 145.137 221.315ZM178.861 196.7C180.781 196.7 182.491 197.075 183.991 197.825C185.521 198.575 186.721 199.73 187.591 201.29C188.461 202.82 188.896 204.8 188.896 207.23V221H183.271V207.95C183.271 205.82 182.761 204.23 181.741 203.18C180.751 202.13 179.356 201.605 177.556 201.605C176.236 201.605 175.066 201.875 174.046 202.415C173.026 202.955 172.231 203.765 171.661 204.845C171.121 205.895 170.851 207.23 170.851 208.85V221H165.226V196.97H170.581V203.45L169.636 201.47C170.476 199.94 171.691 198.77 173.281 197.96C174.901 197.12 176.761 196.7 178.861 196.7ZM206.965 230.045C204.745 230.045 202.57 229.745 200.44 229.145C198.34 228.575 196.615 227.735 195.265 226.625L197.785 222.395C198.835 223.265 200.155 223.955 201.745 224.465C203.365 225.005 205 225.275 206.65 225.275C209.29 225.275 211.225 224.66 212.455 223.43C213.685 222.23 214.3 220.415 214.3 217.985V213.71L214.75 208.265L214.57 202.82V196.97H219.925V217.355C219.925 221.705 218.815 224.9 216.595 226.94C214.375 229.01 211.165 230.045 206.965 230.045ZM206.245 219.92C203.965 219.92 201.895 219.44 200.035 218.48C198.205 217.49 196.75 216.125 195.67 214.385C194.62 212.645 194.095 210.605 194.095 208.265C194.095 205.955 194.62 203.93 195.67 202.19C196.75 200.45 198.205 199.1 200.035 198.14C201.895 197.18 203.965 196.7 206.245 196.7C208.285 196.7 210.115 197.105 211.735 197.915C213.355 198.725 214.645 199.985 215.605 201.695C216.595 203.405 217.09 205.595 217.09 208.265C217.09 210.935 216.595 213.14 215.605 214.88C214.645 216.59 213.355 217.865 211.735 218.705C210.115 219.515 208.285 219.92 206.245 219.92ZM207.1 215.15C208.51 215.15 209.77 214.865 210.88 214.295C211.99 213.695 212.845 212.885 213.445 211.865C214.075 210.815 214.39 209.615 214.39 208.265C214.39 206.915 214.075 205.73 213.445 204.71C212.845 203.66 211.99 202.865 210.88 202.325C209.77 201.755 208.51 201.47 207.1 201.47C205.69 201.47 204.415 201.755 203.275 202.325C202.165 202.865 201.295 203.66 200.665 204.71C200.065 205.73 199.765 206.915 199.765 208.265C199.765 209.615 200.065 210.815 200.665 211.865C201.295 212.885 202.165 213.695 203.275 214.295C204.415 214.865 205.69 215.15 207.1 215.15ZM242.125 221V216.14L241.81 215.105V206.6C241.81 204.95 241.315 203.675 240.325 202.775C239.335 201.845 237.835 201.38 235.825 201.38C234.475 201.38 233.14 201.59 231.82 202.01C230.53 202.43 229.435 203.015 228.535 203.765L226.33 199.67C227.62 198.68 229.15 197.945 230.92 197.465C232.72 196.955 234.58 196.7 236.5 196.7C239.98 196.7 242.665 197.54 244.555 199.22C246.475 200.87 247.435 203.435 247.435 206.915V221H242.125ZM234.565 221.315C232.765 221.315 231.19 221.015 229.84 220.415C228.49 219.785 227.44 218.93 226.69 217.85C225.97 216.74 225.61 215.495 225.61 214.115C225.61 212.765 225.925 211.55 226.555 210.47C227.215 209.39 228.28 208.535 229.75 207.905C231.22 207.275 233.17 206.96 235.6 206.96H242.575V210.695H236.005C234.085 210.695 232.795 211.01 232.135 211.64C231.475 212.24 231.145 212.99 231.145 213.89C231.145 214.91 231.55 215.72 232.36 216.32C233.17 216.92 234.295 217.22 235.735 217.22C237.115 217.22 238.345 216.905 239.425 216.275C240.535 215.645 241.33 214.715 241.81 213.485L242.755 216.86C242.215 218.27 241.24 219.365 239.83 220.145C238.45 220.925 236.695 221.315 234.565 221.315ZM233.215 193.685L239.29 187.52H245.905L238.075 193.685H233.215Z" fill="black"/>
<defs>
<linearGradient id="paint0_linear_187_3" x1="150" y1="0" x2="150" y2="300" gradientUnits="userSpaceOnUse">
<stop stop-color="#FFF280"/>
<stop offset="1" stop-color="#FF7676"/>
</linearGradient>
</defs>
</svg>
