<svg width="300" height="300" viewBox="0 0 300 300" fill="none" xmlns="http://www.w3.org/2000/svg">
<rect width="300" height="300" rx="15" fill="url(#paint0_linear_187_2)"/>
<path d="M15.4727 150V118.5H20.2877L34.0577 141.495H31.5377L45.0827 118.5H49.8977L49.9427 150H44.4077L44.3627 127.185H45.5327L34.0127 146.4H31.4027L19.7027 127.185H21.0527V150H15.4727ZM69.2062 150.315C66.5362 150.315 64.1962 149.79 62.1862 148.74C60.2062 147.66 58.6612 146.19 57.5512 144.33C56.4712 142.47 55.9312 140.355 55.9312 137.985C55.9312 135.585 56.4562 133.47 57.5062 131.64C58.5862 129.78 60.0562 128.325 61.9162 127.275C63.8062 126.225 65.9512 125.7 68.3512 125.7C70.6912 125.7 72.7762 126.21 74.6062 127.23C76.4362 128.25 77.8762 129.69 78.9262 131.55C79.9762 133.41 80.5012 135.6 80.5012 138.12C80.5012 138.36 80.4862 138.63 80.4562 138.93C80.4562 139.23 80.4412 139.515 80.4112 139.785H60.3862V136.05H77.4412L75.2362 137.22C75.2662 135.84 74.9812 134.625 74.3812 133.575C73.7812 132.525 72.9562 131.7 71.9062 131.1C70.8862 130.5 69.7012 130.2 68.3512 130.2C66.9712 130.2 65.7562 130.5 64.7062 131.1C63.6862 131.7 62.8762 132.54 62.2762 133.62C61.7062 134.67 61.4212 135.915 61.4212 137.355V138.255C61.4212 139.695 61.7512 140.97 62.4112 142.08C63.0712 143.19 64.0012 144.045 65.2012 144.645C66.4012 145.245 67.7812 145.545 69.3412 145.545C70.6912 145.545 71.9062 145.335 72.9862 144.915C74.0662 144.495 75.0262 143.835 75.8662 142.935L78.8812 146.4C77.8012 147.66 76.4362 148.635 74.7862 149.325C73.1662 149.985 71.3062 150.315 69.2062 150.315ZM85.9044 150V125.97H91.2594V132.585L90.6294 130.65C91.3494 129.03 92.4744 127.8 94.0044 126.96C95.5644 126.12 97.4994 125.7 99.8094 125.7V131.055C99.5694 130.995 99.3444 130.965 99.1344 130.965C98.9244 130.935 98.7144 130.92 98.5044 130.92C96.3744 130.92 94.6794 131.55 93.4194 132.81C92.1594 134.04 91.5294 135.885 91.5294 138.345V150H85.9044ZM115.386 150.315C112.866 150.315 110.616 149.79 108.636 148.74C106.686 147.66 105.156 146.19 104.046 144.33C102.936 142.47 102.381 140.355 102.381 137.985C102.381 135.585 102.936 133.47 104.046 131.64C105.156 129.78 106.686 128.325 108.636 127.275C110.616 126.225 112.866 125.7 115.386 125.7C117.726 125.7 119.781 126.18 121.551 127.14C123.351 128.07 124.716 129.45 125.646 131.28L121.326 133.8C120.606 132.66 119.721 131.82 118.671 131.28C117.651 130.74 116.541 130.47 115.341 130.47C113.961 130.47 112.716 130.77 111.606 131.37C110.496 131.97 109.626 132.84 108.996 133.98C108.366 135.09 108.051 136.425 108.051 137.985C108.051 139.545 108.366 140.895 108.996 142.035C109.626 143.145 110.496 144 111.606 144.6C112.716 145.2 113.961 145.5 115.341 145.5C116.541 145.5 117.651 145.23 118.671 144.69C119.721 144.15 120.606 143.31 121.326 142.17L125.646 144.69C124.716 146.49 123.351 147.885 121.551 148.875C119.781 149.835 117.726 150.315 115.386 150.315ZM145.314 150V145.14L144.999 144.105V135.6C144.999 133.95 144.504 132.675 143.514 131.775C142.524 130.845 141.024 130.38 139.014 130.38C137.664 130.38 136.329 130.59 135.009 131.01C133.719 131.43 132.624 132.015 131.724 132.765L129.519 128.67C130.809 127.68 132.339 126.945 134.109 126.465C135.909 125.955 137.769 125.7 139.689 125.7C143.169 125.7 145.854 126.54 147.744 128.22C149.664 129.87 150.624 132.435 150.624 135.915V150H145.314ZM137.754 150.315C135.954 150.315 134.379 150.015 133.029 149.415C131.679 148.785 130.629 147.93 129.879 146.85C129.159 145.74 128.799 144.495 128.799 143.115C128.799 141.765 129.114 140.55 129.744 139.47C130.404 138.39 131.469 137.535 132.939 136.905C134.409 136.275 136.359 135.96 138.789 135.96H145.764V139.695H139.194C137.274 139.695 135.984 140.01 135.324 140.64C134.664 141.24 134.334 141.99 134.334 142.89C134.334 143.91 134.739 144.72 135.549 145.32C136.359 145.92 137.484 146.22 138.924 146.22C140.304 146.22 141.534 145.905 142.614 145.275C143.724 144.645 144.519 143.715 144.999 142.485L145.944 145.86C145.404 147.27 144.429 148.365 143.019 149.145C141.639 149.925 139.884 150.315 137.754 150.315ZM168.057 150.315C165.747 150.315 163.662 149.805 161.802 148.785C159.972 147.735 158.532 146.295 157.482 144.465C156.432 142.635 155.907 140.475 155.907 137.985C155.907 135.495 156.432 133.335 157.482 131.505C158.532 129.675 159.972 128.25 161.802 127.23C163.662 126.21 165.747 125.7 168.057 125.7C170.067 125.7 171.867 126.15 173.457 127.05C175.047 127.92 176.307 129.255 177.237 131.055C178.167 132.855 178.632 135.165 178.632 137.985C178.632 140.775 178.182 143.085 177.282 144.915C176.382 146.715 175.137 148.065 173.547 148.965C171.957 149.865 170.127 150.315 168.057 150.315ZM168.732 145.5C170.082 145.5 171.282 145.2 172.332 144.6C173.412 144 174.267 143.13 174.897 141.99C175.557 140.85 175.887 139.515 175.887 137.985C175.887 136.425 175.557 135.09 174.897 133.98C174.267 132.84 173.412 131.97 172.332 131.37C171.282 130.77 170.082 130.47 168.732 130.47C167.382 130.47 166.167 130.77 165.087 131.37C164.037 131.97 163.182 132.84 162.522 133.98C161.892 135.09 161.577 136.425 161.577 137.985C161.577 139.515 161.892 140.85 162.522 141.99C163.182 143.13 164.037 144 165.087 144.6C166.167 145.2 167.382 145.5 168.732 145.5ZM176.022 150V144.33L176.247 137.94L175.797 131.55V116.61H181.377V150H176.022ZM188.78 150V125.97H194.405V150H188.78ZM191.615 122.01C190.565 122.01 189.695 121.68 189.005 121.02C188.345 120.36 188.015 119.565 188.015 118.635C188.015 117.675 188.345 116.88 189.005 116.25C189.695 115.59 190.565 115.26 191.615 115.26C192.665 115.26 193.52 115.575 194.18 116.205C194.87 116.805 195.215 117.57 195.215 118.5C195.215 119.49 194.885 120.33 194.225 121.02C193.565 121.68 192.695 122.01 191.615 122.01ZM215.423 125.7C217.343 125.7 219.053 126.075 220.553 126.825C222.083 127.575 223.283 128.73 224.153 130.29C225.023 131.82 225.458 133.8 225.458 136.23V150H219.833V136.95C219.833 134.82 219.323 133.23 218.303 132.18C217.313 131.13 215.918 130.605 214.118 130.605C212.798 130.605 211.628 130.875 210.608 131.415C209.588 131.955 208.793 132.765 208.223 133.845C207.683 134.895 207.413 136.23 207.413 137.85V150H201.788V125.97H207.143V132.45L206.198 130.47C207.038 128.94 208.253 127.77 209.843 126.96C211.463 126.12 213.323 125.7 215.423 125.7ZM246.229 125.7C248.149 125.7 249.859 126.075 251.359 126.825C252.889 127.575 254.089 128.73 254.959 130.29C255.829 131.82 256.264 133.8 256.264 136.23V150H250.639V136.95C250.639 134.82 250.129 133.23 249.109 132.18C248.119 131.13 246.724 130.605 244.924 130.605C243.604 130.605 242.434 130.875 241.414 131.415C240.394 131.955 239.599 132.765 239.029 133.845C238.489 134.895 238.219 136.23 238.219 137.85V150H232.594V116.61H238.219V132.45L237.004 130.47C237.844 128.94 239.059 127.77 240.649 126.96C242.269 126.12 244.129 125.7 246.229 125.7ZM274.243 150.315C271.783 150.315 269.593 149.79 267.673 148.74C265.753 147.66 264.238 146.19 263.128 144.33C262.018 142.47 261.463 140.355 261.463 137.985C261.463 135.585 262.018 133.47 263.128 131.64C264.238 129.78 265.753 128.325 267.673 127.275C269.593 126.225 271.783 125.7 274.243 125.7C276.733 125.7 278.938 126.225 280.858 127.275C282.808 128.325 284.323 129.765 285.403 131.595C286.513 133.425 287.068 135.555 287.068 137.985C287.068 140.355 286.513 142.47 285.403 144.33C284.323 146.19 282.808 147.66 280.858 148.74C278.938 149.79 276.733 150.315 274.243 150.315ZM274.243 145.5C275.623 145.5 276.853 145.2 277.933 144.6C279.013 144 279.853 143.13 280.453 141.99C281.083 140.85 281.398 139.515 281.398 137.985C281.398 136.425 281.083 135.09 280.453 133.98C279.853 132.84 279.013 131.97 277.933 131.37C276.853 130.77 275.638 130.47 274.288 130.47C272.908 130.47 271.678 130.77 270.598 131.37C269.548 131.97 268.708 132.84 268.078 133.98C267.448 135.09 267.133 136.425 267.133 137.985C267.133 139.515 267.448 140.85 268.078 141.99C268.708 143.13 269.548 144 270.598 144.6C271.678 145.2 272.893 145.5 274.243 145.5ZM63.0336 205.45C60.6336 205.45 58.3986 205.06 56.3286 204.28C54.2886 203.47 52.5036 202.345 50.9736 200.905C49.4736 199.435 48.3036 197.71 47.4636 195.73C46.6236 193.75 46.2036 191.59 46.2036 189.25C46.2036 186.91 46.6236 184.75 47.4636 182.77C48.3036 180.79 49.4886 179.08 51.0186 177.64C52.5486 176.17 54.3336 175.045 56.3736 174.265C58.4136 173.455 60.6486 173.05 63.0786 173.05C65.6586 173.05 68.0136 173.5 70.1436 174.4C72.2736 175.27 74.0736 176.575 75.5436 178.315L71.7636 181.87C70.6236 180.64 69.3486 179.725 67.9386 179.125C66.5286 178.495 64.9986 178.18 63.3486 178.18C61.6986 178.18 60.1836 178.45 58.8036 178.99C57.4536 179.53 56.2686 180.295 55.2486 181.285C54.2586 182.275 53.4786 183.445 52.9086 184.795C52.3686 186.145 52.0986 187.63 52.0986 189.25C52.0986 190.87 52.3686 192.355 52.9086 193.705C53.4786 195.055 54.2586 196.225 55.2486 197.215C56.2686 198.205 57.4536 198.97 58.8036 199.51C60.1836 200.05 61.6986 200.32 63.3486 200.32C64.9986 200.32 66.5286 200.02 67.9386 199.42C69.3486 198.79 70.6236 197.845 71.7636 196.585L75.5436 200.185C74.0736 201.895 72.2736 203.2 70.1436 204.1C68.0136 205 65.6436 205.45 63.0336 205.45ZM90.9811 205.315C88.3111 205.315 85.9711 204.79 83.9611 203.74C81.9811 202.66 80.4361 201.19 79.3261 199.33C78.2461 197.47 77.7061 195.355 77.7061 192.985C77.7061 190.585 78.2311 188.47 79.2811 186.64C80.3611 184.78 81.8311 183.325 83.6911 182.275C85.5811 181.225 87.7261 180.7 90.1261 180.7C92.4661 180.7 94.5511 181.21 96.3811 182.23C98.2111 183.25 99.6511 184.69 100.701 186.55C101.751 188.41 102.276 190.6 102.276 193.12C102.276 193.36 102.261 193.63 102.231 193.93C102.231 194.23 102.216 194.515 102.186 194.785H82.1611V191.05H99.2161L97.0111 192.22C97.0411 190.84 96.7561 189.625 96.1561 188.575C95.5561 187.525 94.7311 186.7 93.6811 186.1C92.6611 185.5 91.4761 185.2 90.1261 185.2C88.7461 185.2 87.5311 185.5 86.4811 186.1C85.4611 186.7 84.6511 187.54 84.0511 188.62C83.4811 189.67 83.1961 190.915 83.1961 192.355V193.255C83.1961 194.695 83.5261 195.97 84.1861 197.08C84.8461 198.19 85.7761 199.045 86.9761 199.645C88.1761 200.245 89.5561 200.545 91.1161 200.545C92.4661 200.545 93.6811 200.335 94.7611 199.915C95.8411 199.495 96.8011 198.835 97.6411 197.935L100.656 201.4C99.5761 202.66 98.2111 203.635 96.5611 204.325C94.9411 204.985 93.0811 205.315 90.9811 205.315ZM121.825 205V200.14L121.51 199.105V190.6C121.51 188.95 121.015 187.675 120.025 186.775C119.035 185.845 117.535 185.38 115.525 185.38C114.175 185.38 112.84 185.59 111.52 186.01C110.23 186.43 109.135 187.015 108.235 187.765L106.03 183.67C107.32 182.68 108.85 181.945 110.62 181.465C112.42 180.955 114.28 180.7 116.2 180.7C119.68 180.7 122.365 181.54 124.255 183.22C126.175 184.87 127.135 187.435 127.135 190.915V205H121.825ZM114.265 205.315C112.465 205.315 110.89 205.015 109.54 204.415C108.19 203.785 107.14 202.93 106.39 201.85C105.67 200.74 105.31 199.495 105.31 198.115C105.31 196.765 105.625 195.55 106.255 194.47C106.915 193.39 107.98 192.535 109.45 191.905C110.92 191.275 112.87 190.96 115.3 190.96H122.275V194.695H115.705C113.785 194.695 112.495 195.01 111.835 195.64C111.175 196.24 110.845 196.99 110.845 197.89C110.845 198.91 111.25 199.72 112.06 200.32C112.87 200.92 113.995 201.22 115.435 201.22C116.815 201.22 118.045 200.905 119.125 200.275C120.235 199.645 121.03 198.715 121.51 197.485L122.455 200.86C121.915 202.27 120.94 203.365 119.53 204.145C118.15 204.925 116.395 205.315 114.265 205.315ZM141.779 205.315C139.769 205.315 137.834 205.06 135.974 204.55C134.144 204.01 132.689 203.365 131.609 202.615L133.769 198.34C134.849 199.03 136.139 199.6 137.639 200.05C139.139 200.5 140.639 200.725 142.139 200.725C143.909 200.725 145.184 200.485 145.964 200.005C146.774 199.525 147.179 198.88 147.179 198.07C147.179 197.41 146.909 196.915 146.369 196.585C145.829 196.225 145.124 195.955 144.254 195.775C143.384 195.595 142.409 195.43 141.329 195.28C140.279 195.13 139.214 194.935 138.134 194.695C137.084 194.425 136.124 194.05 135.254 193.57C134.384 193.06 133.679 192.385 133.139 191.545C132.599 190.705 132.329 189.595 132.329 188.215C132.329 186.685 132.764 185.365 133.634 184.255C134.504 183.115 135.719 182.245 137.279 181.645C138.869 181.015 140.744 180.7 142.904 180.7C144.524 180.7 146.159 180.88 147.809 181.24C149.459 181.6 150.824 182.11 151.904 182.77L149.744 187.045C148.604 186.355 147.449 185.89 146.279 185.65C145.139 185.38 143.999 185.245 142.859 185.245C141.149 185.245 139.874 185.5 139.034 186.01C138.224 186.52 137.819 187.165 137.819 187.945C137.819 188.665 138.089 189.205 138.629 189.565C139.169 189.925 139.874 190.21 140.744 190.42C141.614 190.63 142.574 190.81 143.624 190.96C144.704 191.08 145.769 191.275 146.819 191.545C147.869 191.815 148.829 192.19 149.699 192.67C150.599 193.12 151.319 193.765 151.859 194.605C152.399 195.445 152.669 196.54 152.669 197.89C152.669 199.39 152.219 200.695 151.319 201.805C150.449 202.915 149.204 203.785 147.584 204.415C145.964 205.015 144.029 205.315 141.779 205.315ZM157.513 205V180.97H163.138V205H157.513ZM160.348 177.01C159.298 177.01 158.428 176.68 157.738 176.02C157.078 175.36 156.748 174.565 156.748 173.635C156.748 172.675 157.078 171.88 157.738 171.25C158.428 170.59 159.298 170.26 160.348 170.26C161.398 170.26 162.253 170.575 162.913 171.205C163.603 171.805 163.948 172.57 163.948 173.5C163.948 174.49 163.618 175.33 162.958 176.02C162.298 176.68 161.428 177.01 160.348 177.01ZM184.156 180.7C186.076 180.7 187.786 181.075 189.286 181.825C190.816 182.575 192.016 183.73 192.886 185.29C193.756 186.82 194.191 188.8 194.191 191.23V205H188.566V191.95C188.566 189.82 188.056 188.23 187.036 187.18C186.046 186.13 184.651 185.605 182.851 185.605C181.531 185.605 180.361 185.875 179.341 186.415C178.321 186.955 177.526 187.765 176.956 188.845C176.416 189.895 176.146 191.23 176.146 192.85V205H170.521V180.97H175.876V187.45L174.931 185.47C175.771 183.94 176.986 182.77 178.576 181.96C180.196 181.12 182.056 180.7 184.156 180.7ZM214.962 180.7C216.882 180.7 218.592 181.075 220.092 181.825C221.622 182.575 222.822 183.73 223.692 185.29C224.562 186.82 224.997 188.8 224.997 191.23V205H219.372V191.95C219.372 189.82 218.862 188.23 217.842 187.18C216.852 186.13 215.457 185.605 213.657 185.605C212.337 185.605 211.167 185.875 210.147 186.415C209.127 186.955 208.332 187.765 207.762 188.845C207.222 189.895 206.952 191.23 206.952 192.85V205H201.327V171.61H206.952V187.45L205.737 185.47C206.577 183.94 207.792 182.77 209.382 181.96C211.002 181.12 212.862 180.7 214.962 180.7ZM246.937 205V200.14L246.622 199.105V190.6C246.622 188.95 246.127 187.675 245.137 186.775C244.147 185.845 242.647 185.38 240.637 185.38C239.287 185.38 237.952 185.59 236.632 186.01C235.342 186.43 234.247 187.015 233.347 187.765L231.142 183.67C232.432 182.68 233.962 181.945 235.732 181.465C237.532 180.955 239.392 180.7 241.312 180.7C244.792 180.7 247.477 181.54 249.367 183.22C251.287 184.87 252.247 187.435 252.247 190.915V205H246.937ZM239.377 205.315C237.577 205.315 236.002 205.015 234.652 204.415C233.302 203.785 232.252 202.93 231.502 201.85C230.782 200.74 230.422 199.495 230.422 198.115C230.422 196.765 230.737 195.55 231.367 194.47C232.027 193.39 233.092 192.535 234.562 191.905C236.032 191.275 237.982 190.96 240.412 190.96H247.387V194.695H240.817C238.897 194.695 237.607 195.01 236.947 195.64C236.287 196.24 235.957 196.99 235.957 197.89C235.957 198.91 236.362 199.72 237.172 200.32C237.982 200.92 239.107 201.22 240.547 201.22C241.927 201.22 243.157 200.905 244.237 200.275C245.347 199.645 246.142 198.715 246.622 197.485L247.567 200.86C247.027 202.27 246.052 203.365 244.642 204.145C243.262 204.925 241.507 205.315 239.377 205.315Z" fill="black"/>
<defs>
<linearGradient id="paint0_linear_187_2" x1="150" y1="0" x2="150" y2="300" gradientUnits="userSpaceOnUse">
<stop stop-color="#C882FF"/>
<stop offset="0.9999" stop-color="#7A83FF"/>
<stop offset="1" stop-color="#001AFF" stop-opacity="0"/>
</linearGradient>
</defs>
</svg>
