<svg width="50" height="50" viewBox="0 0 50 50" fill="none" xmlns="http://www.w3.org/2000/svg">
<path d="M7.14286 3.125C3.20312 3.125 0 5.92773 0 9.375V40.625C0 44.0723 3.20312 46.875 7.14286 46.875H42.8571C46.7969 46.875 50 44.0723 50 40.625V9.375C50 5.92773 46.7969 3.125 42.8571 3.125H7.14286ZM24.3304 26.5332L7.16518 16.8359C7.36607 15.2734 8.87277 14.0625 10.7143 14.0625H39.2857C41.1272 14.0625 42.6339 15.2734 42.8348 16.8359L25.6696 26.5332C25.4688 26.6504 25.2344 26.709 25 26.709C24.7656 26.709 24.5312 26.6504 24.3304 26.5332ZM27.6116 29.1602L42.8571 20.5469V32.8125C42.8571 34.541 41.2612 35.9375 39.2857 35.9375H10.7143C8.73884 35.9375 7.14286 34.541 7.14286 32.8125V20.5469L22.3884 29.1602C23.1696 29.5996 24.0737 29.834 25 29.834C25.9263 29.834 26.8304 29.5996 27.6116 29.1602Z" fill="#F7F0F0"/>
</svg>
