<svg width="30" height="25" viewBox="0 0 30 25" fill="none" xmlns="http://www.w3.org/2000/svg">
<path d="M0 4.16667C0 1.86523 1.67871 0 3.75 0H26.25C28.3184 0 30 1.86523 30 4.16667V20.8333C30 23.1315 28.3184 25 26.25 25H3.75C1.67871 25 0 23.1315 0 20.8333V4.16667ZM2.8125 4.16667V5.60547L12.9199 14.8242C14.127 15.931 15.873 15.931 17.0801 14.8242L27.1875 5.60547V4.10807C27.1875 3.59375 26.7656 3.06641 26.25 3.06641H3.75C3.23203 3.06641 2.8125 3.59375 2.8125 4.10807V4.16667ZM2.8125 9.64844V20.8333C2.8125 21.4062 3.23203 21.875 3.75 21.875H26.25C26.7656 21.875 27.1875 21.4062 27.1875 20.8333V9.64844L18.8672 17.2396C16.6172 19.2904 13.3828 19.2904 11.0801 17.2396L2.8125 9.64844Z" fill="white"/>
</svg>
