<svg width="34" height="26" viewBox="0 0 34 26" fill="none" xmlns="http://www.w3.org/2000/svg">
<path d="M3.1875 0C1.42773 0 0 1.42773 0 3.1875C0 4.19023 0.471484 5.1332 1.275 5.7375L15.725 16.575C16.482 17.1395 17.518 17.1395 18.275 16.575L32.725 5.7375C33.5285 5.1332 34 4.19023 34 3.1875C34 1.42773 32.5723 0 30.8125 0H3.1875ZM0 7.4375V21.25C0 23.5941 1.90586 25.5 4.25 25.5H29.75C32.0941 25.5 34 23.5941 34 21.25V7.4375L19.55 18.275C18.0359 19.4105 15.9641 19.4105 14.45 18.275L0 7.4375Z" fill="#001804"/>
</svg>
