<svg width="30" height="120" viewBox="0 0 30 120" fill="none" xmlns="http://www.w3.org/2000/svg">
<path d="M27.8571 41.875H2.13616C0.957589 41.875 0 42.7246 0 43.7676V66.2324C0 67.2754 0.957589 68.125 2.13616 68.125H27.8571C29.0357 68.125 30 67.2754 30 66.2324V43.7676C30 42.7246 29.0357 41.875 27.8571 41.875ZM9.06696 64.375H4.62054V51.8477H9.07366V64.375H9.06696ZM6.84375 50.1367C5.41741 50.1367 4.26562 49.123 4.26562 47.8809C4.26562 46.6387 5.41741 45.625 6.84375 45.625C8.26339 45.625 9.42187 46.6387 9.42187 47.8809C9.42187 49.1289 8.27009 50.1367 6.84375 50.1367V50.1367ZM25.7344 64.375H21.2879V58.2812C21.2879 56.8281 21.2545 54.959 18.9777 54.959C16.6607 54.959 16.3058 56.541 16.3058 58.1758V64.375H11.8594V51.8477H16.125V53.5586H16.1853C16.7812 52.5742 18.2344 51.5371 20.3973 51.5371C24.8973 51.5371 25.7344 54.1328 25.7344 57.5078V64.375V64.375Z" fill="white"/>
<path d="M0 3.33333C0 1.49219 1.67871 0 3.75 0H26.25C28.3184 0 30 1.49219 30 3.33333V16.6667C30 18.5052 28.3184 20 26.25 20H3.75C1.67871 20 0 18.5052 0 16.6667V3.33333ZM2.8125 3.33333V4.48438L12.9199 11.8594C14.127 12.7448 15.873 12.7448 17.0801 11.8594L27.1875 4.48438V3.28646C27.1875 2.875 26.7656 2.45312 26.25 2.45312H3.75C3.23203 2.45312 2.8125 2.875 2.8125 3.28646V3.33333ZM2.8125 7.71875V16.6667C2.8125 17.125 3.23203 17.5 3.75 17.5H26.25C26.7656 17.5 27.1875 17.125 27.1875 16.6667V7.71875L18.8672 13.7917C16.6172 15.4323 13.3828 15.4323 11.0801 13.7917L2.8125 7.71875Z" fill="white"/>
<path d="M10.0343 113.285C10.0343 113.402 9.89516 113.496 9.71976 113.496C9.52016 113.514 9.38105 113.42 9.38105 113.285C9.38105 113.168 9.52016 113.074 9.69556 113.074C9.87702 113.057 10.0343 113.15 10.0343 113.285ZM8.15323 113.021C8.11089 113.139 8.23185 113.273 8.41331 113.309C8.57056 113.367 8.75202 113.309 8.78831 113.191C8.8246 113.074 8.70968 112.939 8.52823 112.887C8.37097 112.846 8.19556 112.904 8.15323 113.021ZM10.8266 112.922C10.6512 112.963 10.5302 113.074 10.5484 113.209C10.5665 113.326 10.7238 113.402 10.9052 113.361C11.0806 113.32 11.2016 113.209 11.1835 113.092C11.1653 112.98 11.002 112.904 10.8266 112.922ZM14.8065 90.4688C6.41734 90.4688 0 96.6387 0 104.766C0 111.264 4.22177 116.824 10.252 118.781C11.0262 118.916 11.2984 118.453 11.2984 118.072C11.2984 117.709 11.2802 115.705 11.2802 114.475C11.2802 114.475 7.04637 115.354 6.15726 112.729C6.15726 112.729 5.46774 111.023 4.47581 110.584C4.47581 110.584 3.09073 109.664 4.57258 109.682C4.57258 109.682 6.07863 109.799 6.90726 111.193C8.23185 113.455 10.4516 112.805 11.3165 112.418C11.4556 111.48 11.8488 110.83 12.2843 110.443C8.90323 110.08 5.49194 109.605 5.49194 103.969C5.49194 102.357 5.95161 101.549 6.91935 100.518C6.7621 100.137 6.24798 98.5664 7.07661 96.5391C8.34073 96.1582 11.25 98.1211 11.25 98.1211C12.4597 97.793 13.7601 97.623 15.0484 97.623C16.3367 97.623 17.6371 97.793 18.8468 98.1211C18.8468 98.1211 21.756 96.1523 23.0202 96.5391C23.8488 98.5723 23.3347 100.137 23.1774 100.518C24.1452 101.555 24.7379 102.363 24.7379 103.969C24.7379 109.623 21.1754 110.074 17.7944 110.443C18.3508 110.906 18.8226 111.785 18.8226 113.162C18.8226 115.137 18.8044 117.58 18.8044 118.061C18.8044 118.441 19.0827 118.904 19.8508 118.77C25.8992 116.824 30 111.264 30 104.766C30 96.6387 23.1956 90.4688 14.8065 90.4688ZM5.87903 110.678C5.8004 110.736 5.81855 110.871 5.92137 110.982C6.01815 111.076 6.15726 111.117 6.23589 111.041C6.31452 110.982 6.29637 110.848 6.19355 110.736C6.09677 110.643 5.95766 110.602 5.87903 110.678ZM5.22581 110.203C5.18347 110.279 5.24395 110.373 5.36492 110.432C5.46169 110.49 5.58266 110.473 5.625 110.391C5.66734 110.314 5.60685 110.221 5.48589 110.162C5.36492 110.127 5.26815 110.145 5.22581 110.203ZM7.18548 112.289C7.08871 112.365 7.125 112.541 7.26411 112.652C7.40323 112.787 7.57863 112.805 7.65726 112.711C7.73589 112.635 7.6996 112.459 7.57863 112.348C7.44556 112.213 7.26411 112.195 7.18548 112.289ZM6.49597 111.428C6.39919 111.486 6.39919 111.639 6.49597 111.773C6.59274 111.908 6.75605 111.967 6.83468 111.908C6.93145 111.832 6.93145 111.68 6.83468 111.545C6.75 111.41 6.59274 111.352 6.49597 111.428Z" fill="white"/>
</svg>
