<svg width="35" height="35" viewBox="0 0 35 35" fill="none" xmlns="http://www.w3.org/2000/svg">
<g clip-path="url(#clip0_282_250)">
<path d="M17.5 35C7.83398 35 0 27.166 0 17.5C0 7.83398 7.83398 0 17.5 0C27.166 0 35 7.83398 35 17.5C35 27.166 27.166 35 17.5 35ZM15.8594 8.20312V17.5C15.8594 18.0469 16.1328 18.5596 16.5908 18.8672L23.1533 23.2422C23.9053 23.748 24.9238 23.543 25.4297 22.7842C25.9355 22.0254 25.7305 21.0137 24.9717 20.5078L19.1406 16.625V8.20312C19.1406 7.29395 18.4092 6.5625 17.5 6.5625C16.5908 6.5625 15.8594 7.29395 15.8594 8.20312Z" fill="#001804"/>
</g>
<defs>
<clipPath id="clip0_282_250">
<rect width="35" height="35" fill="white"/>
</clipPath>
</defs>
</svg>
