<svg width="50" height="50" viewBox="0 0 50 50" fill="none" xmlns="http://www.w3.org/2000/svg">
<g clip-path="url(#clip0_167_37)">
<path d="M25 19.791C23.8227 19.7914 22.6719 20.0972 21.6932 20.6698C20.7145 21.2424 19.9519 22.0561 19.5016 23.008C19.0514 23.9598 18.9338 25.0071 19.1638 26.0174C19.3937 27.0277 19.9609 27.9557 20.7935 28.684C21.6262 29.4123 22.6869 29.9082 23.8417 30.109C24.9964 30.3099 26.1932 30.2066 27.2809 29.8123C28.3686 29.418 29.2982 28.7503 29.9522 27.8938C30.6063 27.0372 30.9554 26.0302 30.9554 25C30.9542 23.6185 30.3263 22.2939 29.2096 21.3171C28.093 20.3404 26.5789 19.7915 25 19.791ZM38.9185 15.7871C38.6155 15.1151 38.1578 14.5047 37.574 13.9939C36.9902 13.483 36.2926 13.0826 35.5246 12.8174C33.1808 12.0078 27.6004 12.1895 25 12.1895C22.3996 12.1895 16.8248 12.001 14.4743 12.8174C13.7063 13.0826 13.0087 13.483 12.4249 13.9939C11.8411 14.5047 11.3834 15.1151 11.0804 15.7871C10.1562 17.8379 10.3627 22.7256 10.3627 24.999C10.3627 27.2725 10.1562 32.1543 11.0848 34.2119C11.3879 34.8839 11.8455 35.4943 12.4294 36.0052C13.0132 36.516 13.7108 36.9165 14.4788 37.1816C16.8225 37.9912 22.4029 37.8096 25.0045 37.8096C27.606 37.8096 33.1786 37.998 35.529 37.1816C36.2971 36.9165 36.9946 36.516 37.5785 36.0052C38.1623 35.4943 38.6199 34.8839 38.923 34.2119C39.8549 32.1611 39.6406 27.2734 39.6406 25C39.6406 22.7266 39.8549 17.8457 38.923 15.7881L38.9185 15.7871ZM25 33.0078C23.1899 33.0078 21.4205 32.5382 19.9155 31.6583C18.4105 30.7783 17.2375 29.5277 16.5449 28.0645C15.8522 26.6012 15.6709 24.9911 16.0241 23.4378C16.3772 21.8844 17.2488 20.4575 18.5287 19.3376C19.8086 18.2177 21.4393 17.455 23.2146 17.1461C24.9898 16.8371 26.83 16.9957 28.5022 17.6017C30.1745 18.2078 31.6038 19.2342 32.6094 20.5511C33.615 21.868 34.1518 23.4162 34.1518 25C34.1533 26.052 33.9175 27.0938 33.4581 28.066C32.9987 29.0381 32.3247 29.9214 31.4746 30.6652C30.6245 31.4091 29.615 31.9989 28.504 32.4009C27.393 32.8028 26.2022 33.0091 25 33.0078ZM34.529 18.5254C34.1065 18.5256 33.6934 18.4161 33.3419 18.2109C32.9905 18.0056 32.7165 17.7137 32.5547 17.3722C32.3928 17.0307 32.3504 16.6548 32.4327 16.2922C32.5149 15.9296 32.7183 15.5964 33.017 15.3349C33.3157 15.0734 33.6963 14.8953 34.1107 14.8231C34.5252 14.7509 34.9547 14.7879 35.3451 14.9293C35.7355 15.0707 36.0692 15.3103 36.304 15.6177C36.5387 15.9251 36.6641 16.2865 36.6641 16.6562C36.6652 16.9018 36.611 17.1451 36.5045 17.3722C36.3979 17.5994 36.2412 17.8059 36.0433 17.9799C35.8453 18.1539 35.6101 18.292 35.351 18.3863C35.0919 18.4806 34.8141 18.5292 34.5335 18.5293L34.529 18.5254ZM44.6429 3.125H5.35714C3.93634 3.125 2.57373 3.61886 1.56907 4.49794C0.564412 5.37701 0 6.5693 0 7.8125L0 42.1875C0 43.4307 0.564412 44.623 1.56907 45.5021C2.57373 46.3811 3.93634 46.875 5.35714 46.875H44.6429C46.0637 46.875 47.4263 46.3811 48.4309 45.5021C49.4356 44.623 50 43.4307 50 42.1875V7.8125C50 6.5693 49.4356 5.37701 48.4309 4.49794C47.4263 3.61886 46.0637 3.125 44.6429 3.125ZM42.7321 31.4453C42.5882 33.9482 41.9353 36.166 39.8471 37.9883C37.7589 39.8105 35.2266 40.3936 32.3694 40.5127C29.4219 40.6582 20.5848 40.6582 17.6373 40.5127C14.7768 40.3867 12.2511 39.8145 10.1596 37.9883C8.06808 36.1621 7.41071 33.9434 7.27455 31.4453C7.10826 28.8652 7.10826 21.1318 7.27455 18.5547C7.41853 16.0518 8.06362 13.834 10.1596 12.0117C12.2556 10.1895 14.7879 9.61328 17.6373 9.49414C20.5848 9.34863 29.4219 9.34863 32.3694 9.49414C35.2299 9.62012 37.7634 10.1924 39.8471 12.0186C41.9308 13.8447 42.596 16.0635 42.7321 18.5664C42.8984 21.1367 42.8984 28.8633 42.7321 31.4453Z" fill="#F7F0F0"/>
</g>
<defs>
<clipPath id="clip0_167_37">
<rect width="50" height="50" fill="white"/>
</clipPath>
</defs>
</svg>
