<svg width="25" height="34" viewBox="0 0 25 34" fill="none" xmlns="http://www.w3.org/2000/svg">
<path d="M14.043 32.5C17.3828 28.3203 25 18.1901 25 12.5C25 5.59896 19.401 0 12.5 0C5.59896 0 0 5.59896 0 12.5C0 18.1901 7.61719 28.3203 10.957 32.5C11.7578 33.4961 13.2422 33.4961 14.043 32.5ZM12.5 16.6667C10.2018 16.6667 8.33333 14.7982 8.33333 12.5C8.33333 10.2018 10.2018 8.33333 12.5 8.33333C14.7982 8.33333 16.6667 10.2018 16.6667 12.5C16.6667 14.7982 14.7982 16.6667 12.5 16.6667Z" fill="#001804"/>
</svg>
