<svg width="300" height="300" viewBox="0 0 300 300" fill="none" xmlns="http://www.w3.org/2000/svg">
<rect width="300" height="300" rx="15" fill="url(#paint0_linear_330_276)"/>
<path d="M95.1399 167.45C92.6799 167.45 90.4149 167.045 88.3449 166.235C86.2749 165.425 84.4749 164.3 82.9449 162.86C81.4149 161.39 80.2299 159.68 79.3899 157.73C78.5499 155.75 78.1299 153.59 78.1299 151.25C78.1299 148.91 78.5499 146.765 79.3899 144.815C80.2299 142.835 81.4149 141.125 82.9449 139.685C84.4749 138.215 86.2749 137.075 88.3449 136.265C90.4149 135.455 92.6649 135.05 95.0949 135.05C97.5549 135.05 99.8049 135.455 101.845 136.265C103.915 137.075 105.715 138.215 107.245 139.685C108.775 141.125 109.96 142.835 110.8 144.815C111.64 146.765 112.06 148.91 112.06 151.25C112.06 153.59 111.64 155.75 110.8 157.73C109.96 159.71 108.775 161.42 107.245 162.86C105.715 164.3 103.915 165.425 101.845 166.235C99.8049 167.045 97.5699 167.45 95.1399 167.45ZM95.0949 162.32C96.6849 162.32 98.1549 162.05 99.5049 161.51C100.855 160.97 102.025 160.205 103.015 159.215C104.005 158.195 104.77 157.025 105.31 155.705C105.88 154.355 106.165 152.87 106.165 151.25C106.165 149.63 105.88 148.16 105.31 146.84C104.77 145.49 104.005 144.32 103.015 143.33C102.025 142.31 100.855 141.53 99.5049 140.99C98.1549 140.45 96.6849 140.18 95.0949 140.18C93.5049 140.18 92.0349 140.45 90.6849 140.99C89.3649 141.53 88.1949 142.31 87.1749 143.33C86.1849 144.32 85.4049 145.49 84.8349 146.84C84.2949 148.16 84.0249 149.63 84.0249 151.25C84.0249 152.84 84.2949 154.31 84.8349 155.66C85.4049 157.01 86.1849 158.195 87.1749 159.215C88.1649 160.205 89.3349 160.97 90.6849 161.51C92.0349 162.05 93.5049 162.32 95.0949 162.32ZM118.261 167V135.5H123.076L142.831 159.755H140.446V135.5H146.251V167H141.436L121.681 142.745H124.066V167H118.261ZM169.406 167.45C166.946 167.45 164.681 167.06 162.611 166.28C160.571 165.47 158.786 164.345 157.256 162.905C155.726 161.435 154.541 159.71 153.701 157.73C152.861 155.75 152.441 153.59 152.441 151.25C152.441 148.91 152.861 146.75 153.701 144.77C154.541 142.79 155.726 141.08 157.256 139.64C158.816 138.17 160.631 137.045 162.701 136.265C164.771 135.455 167.036 135.05 169.496 135.05C172.166 135.05 174.566 135.485 176.696 136.355C178.856 137.225 180.671 138.5 182.141 140.18L178.451 143.78C177.221 142.55 175.886 141.65 174.446 141.08C173.036 140.48 171.476 140.18 169.766 140.18C168.116 140.18 166.586 140.45 165.176 140.99C163.766 141.53 162.551 142.295 161.531 143.285C160.511 144.275 159.716 145.445 159.146 146.795C158.606 148.145 158.336 149.63 158.336 151.25C158.336 152.84 158.606 154.31 159.146 155.66C159.716 157.01 160.511 158.195 161.531 159.215C162.551 160.205 163.751 160.97 165.131 161.51C166.511 162.05 168.041 162.32 169.721 162.32C171.281 162.32 172.781 162.08 174.221 161.6C175.691 161.09 177.086 160.25 178.406 159.08L181.736 163.445C180.086 164.765 178.166 165.77 175.976 166.46C173.816 167.12 171.626 167.45 169.406 167.45ZM176.201 162.68V150.89H181.736V163.445L176.201 162.68ZM209.539 167.45C207.319 167.45 205.144 167.135 203.014 166.505C200.914 165.845 199.144 164.945 197.704 163.805L200.224 159.26C201.364 160.19 202.744 160.94 204.364 161.51C205.984 162.08 207.679 162.365 209.449 162.365C211.549 162.365 213.184 161.945 214.354 161.105C215.524 160.235 216.109 159.065 216.109 157.595C216.109 156.155 215.569 155.015 214.489 154.175C213.409 153.335 211.669 152.915 209.269 152.915H206.389V148.91L215.389 138.2L216.154 140.405H199.234V135.5H220.699V139.415L211.699 150.125L208.639 148.325H210.394C214.264 148.325 217.159 149.195 219.079 150.935C221.029 152.645 222.004 154.85 222.004 157.55C222.004 159.32 221.554 160.955 220.654 162.455C219.754 163.955 218.374 165.17 216.514 166.1C214.684 167 212.359 167.45 209.539 167.45Z" fill="black"/>
<defs>
<linearGradient id="paint0_linear_330_276" x1="150" y1="0" x2="150" y2="300" gradientUnits="userSpaceOnUse">
<stop stop-color="#7BFF70"/>
<stop offset="1" stop-color="#FF5BEF"/>
</linearGradient>
</defs>
</svg>
