<svg width="300" height="300" viewBox="0 0 300 300" fill="none" xmlns="http://www.w3.org/2000/svg">
<rect width="300" height="300" rx="15" fill="url(#paint0_linear_330_277)"/>
<path d="M93.4646 167.45C91.0046 167.45 88.7396 167.045 86.6696 166.235C84.5996 165.425 82.7996 164.3 81.2696 162.86C79.7396 161.39 78.5546 159.68 77.7146 157.73C76.8746 155.75 76.4546 153.59 76.4546 151.25C76.4546 148.91 76.8746 146.765 77.7146 144.815C78.5546 142.835 79.7396 141.125 81.2696 139.685C82.7996 138.215 84.5996 137.075 86.6696 136.265C88.7396 135.455 90.9896 135.05 93.4196 135.05C95.8796 135.05 98.1296 135.455 100.17 136.265C102.24 137.075 104.04 138.215 105.57 139.685C107.1 141.125 108.285 142.835 109.125 144.815C109.965 146.765 110.385 148.91 110.385 151.25C110.385 153.59 109.965 155.75 109.125 157.73C108.285 159.71 107.1 161.42 105.57 162.86C104.04 164.3 102.24 165.425 100.17 166.235C98.1296 167.045 95.8946 167.45 93.4646 167.45ZM93.4196 162.32C95.0096 162.32 96.4796 162.05 97.8296 161.51C99.1796 160.97 100.35 160.205 101.34 159.215C102.33 158.195 103.095 157.025 103.635 155.705C104.205 154.355 104.49 152.87 104.49 151.25C104.49 149.63 104.205 148.16 103.635 146.84C103.095 145.49 102.33 144.32 101.34 143.33C100.35 142.31 99.1796 141.53 97.8296 140.99C96.4796 140.45 95.0096 140.18 93.4196 140.18C91.8296 140.18 90.3596 140.45 89.0096 140.99C87.6896 141.53 86.5196 142.31 85.4996 143.33C84.5096 144.32 83.7296 145.49 83.1596 146.84C82.6196 148.16 82.3496 149.63 82.3496 151.25C82.3496 152.84 82.6196 154.31 83.1596 155.66C83.7296 157.01 84.5096 158.195 85.4996 159.215C86.4896 160.205 87.6596 160.97 89.0096 161.51C90.3596 162.05 91.8296 162.32 93.4196 162.32ZM116.585 167V135.5H121.4L141.155 159.755H138.77V135.5H144.575V167H139.76L120.005 142.745H122.39V167H116.585ZM167.731 167.45C165.271 167.45 163.006 167.06 160.936 166.28C158.896 165.47 157.111 164.345 155.581 162.905C154.051 161.435 152.866 159.71 152.026 157.73C151.186 155.75 150.766 153.59 150.766 151.25C150.766 148.91 151.186 146.75 152.026 144.77C152.866 142.79 154.051 141.08 155.581 139.64C157.141 138.17 158.956 137.045 161.026 136.265C163.096 135.455 165.361 135.05 167.821 135.05C170.491 135.05 172.891 135.485 175.021 136.355C177.181 137.225 178.996 138.5 180.466 140.18L176.776 143.78C175.546 142.55 174.211 141.65 172.771 141.08C171.361 140.48 169.801 140.18 168.091 140.18C166.441 140.18 164.911 140.45 163.501 140.99C162.091 141.53 160.876 142.295 159.856 143.285C158.836 144.275 158.041 145.445 157.471 146.795C156.931 148.145 156.661 149.63 156.661 151.25C156.661 152.84 156.931 154.31 157.471 155.66C158.041 157.01 158.836 158.195 159.856 159.215C160.876 160.205 162.076 160.97 163.456 161.51C164.836 162.05 166.366 162.32 168.046 162.32C169.606 162.32 171.106 162.08 172.546 161.6C174.016 161.09 175.411 160.25 176.731 159.08L180.061 163.445C178.411 164.765 176.491 165.77 174.301 166.46C172.141 167.12 169.951 167.45 167.731 167.45ZM174.526 162.68V150.89H180.061V163.445L174.526 162.68ZM197.513 159.845V155.795L213.038 135.5H219.293L203.993 155.795L201.068 154.895H226.043V159.845H197.513ZM214.793 167V159.845L214.973 154.895V148.55H220.463V167H214.793Z" fill="black"/>
<defs>
<linearGradient id="paint0_linear_330_277" x1="150" y1="0" x2="150" y2="300" gradientUnits="userSpaceOnUse">
<stop stop-color="#74FFE6"/>
<stop offset="1" stop-color="#FF74AE"/>
</linearGradient>
</defs>
</svg>
