<svg width="35" height="35" viewBox="0 0 35 35" fill="none" xmlns="http://www.w3.org/2000/svg">
<g clip-path="url(#clip0_283_253)">
<path d="M11.2725 1.68166C10.7461 0.410172 9.3584 -0.266586 8.03223 0.0957186L2.0166 1.73634C0.827148 2.06447 0 3.14455 0 4.37501C0 21.2871 13.7129 35 30.625 35C31.8555 35 32.9355 34.1729 33.2637 32.9834L34.9043 26.9678C35.2666 25.6416 34.5898 24.2539 33.3184 23.7276L26.7559 20.9932C25.6416 20.5283 24.3496 20.8496 23.5908 21.7861L20.8291 25.1563C16.0166 22.8799 12.1201 18.9834 9.84375 14.1709L13.2139 11.416C14.1504 10.6504 14.4717 9.36525 14.0068 8.25099L11.2725 1.68849V1.68166Z" fill="#001804"/>
</g>
<defs>
<clipPath id="clip0_283_253">
<rect width="35" height="35" fill="white"/>
</clipPath>
</defs>
</svg>
